<?xml version="1.0" encoding="utf-8"?>
<!-- Generator: Adobe Illustrator 16.0.0, SVG Export Plug-In . SVG Version: 6.00 Build 0)  -->
<!DOCTYPE svg PUBLIC "-//W3C//DTD SVG 1.1//EN" "http://www.w3.org/Graphics/SVG/1.1/DTD/svg11.dtd">
<svg version="1.1" id="Layer_1" xmlns="http://www.w3.org/2000/svg" xmlns:xlink="http://www.w3.org/1999/xlink" x="0px" y="0px"
	 width="87.907px" height="1000px" viewBox="0 0 87.907 1000" enable-background="new 0 0 87.907 1000" xml:space="preserve">
<path fill="#FFFFFF" d="M0,960.737c0,10.432,7.665,18.904,17.07,18.904c8.229,0,15.121-6.485,16.703-15.122c0.072,0,0.122,0,0.19,0
	c13.418-0.577,4.067,4.158,29.023-25.036c0.412,1.467,0.808,2.851,1.171,4.149c-6.098,2.87-10.369,9.597-10.369,17.396
	c0,10.445,7.648,18.921,17.055,18.921c9.418,0,17.064-8.476,17.064-18.921c0-10.408-7.646-18.908-17.064-18.908
	c-1.069,0-2.122,0.11-3.122,0.327c-6.63-23.649-4.479-22.105-16.88-22.247v3.773c9.011,0,7.873-0.576,9.869,7.176H31.055
	l-1.137-3.627c6.611-1.636,8.474-1.636,7.146-3.619h-15v3.693l3.996,0.087l1.152,3.532c-1.808,4.514-3.377,8.317-4.685,11.584
	c-1.707-0.64-3.548-1-5.458-1C7.665,941.802,0,950.294,0,960.737z M65.379,947.865c4.238,15.016,3.857,14.708,5.565,14.897
	c0.946-0.068,1.702-0.903,1.668-1.92c-0.015-1.225,0.482,0.41-3.684-14.148c0.618-0.08,1.254-0.147,1.913-0.147
	c7.195,0,13.068,6.492,13.068,14.482c0,7.995-5.873,14.521-13.068,14.521c-7.201,0-13.059-6.526-13.059-14.521
	C57.784,955.21,60.885,950.173,65.379,947.865z M32.534,935.145l29.041,0.052l-20.636,24.94L32.534,935.145z M25.869,944.531
	l3.187-7.854l8.233,23.977h-3.17C34.084,953.822,30.797,947.839,25.869,944.531z M30.139,960.668l-10.849,0.034l4.927-12.101
	C27.748,951.181,30.105,955.612,30.139,960.668z M4.012,960.737c0-7.999,5.839-14.491,13.059-14.491c1.307,0,2.58,0.212,3.805,0.601
	c-5.942,14.548-6.185,15.08-6.2,15.829c0.19,2.627,1.395,1.844,15,1.825c-1.498,6.157-6.595,10.713-12.604,10.713
	C9.851,975.214,4.012,968.712,4.012,960.737z"/>
</svg>
