<?xml version="1.0" encoding="utf-8"?>
<!-- Generator: Adobe Illustrator 16.0.0, SVG Export Plug-In . SVG Version: 6.00 Build 0)  -->
<!DOCTYPE svg PUBLIC "-//W3C//DTD SVG 1.1//EN" "http://www.w3.org/Graphics/SVG/1.1/DTD/svg11.dtd">
<svg version="1.1" id="Layer_1" xmlns="http://www.w3.org/2000/svg" xmlns:xlink="http://www.w3.org/1999/xlink" x="0px" y="0px"
	 width="259.541px" height="1000px" viewBox="0 0 259.541 1000" enable-background="new 0 0 259.541 1000" xml:space="preserve">
<path fill="#FFFFFF" d="M246.345,998.636c-77.711,0-155.406,0-233.154,0c0-127.956,0-255.899,0-384.148
	c-8.025-1.401-2.322-10.023-5.37-15.251c-2.274,0.175-5.03,0.36-7.82,0.585c0-5.664,0-11.331,0-17.008c4.32,0,8.628,0,13.019,0
	c0-34.68,0-68.565,0-102.539c-7.942-1.602-1.791-10.68-5.165-15.143c-2.464,0-5.152,0-7.854,0c0-5.226,0-10.442,0-15.688
	c4.32-0.369,8.644-0.707,13.399-1.096c0-6.25,0-12.026,0-18.581c4.581,0,8.644,0,12.761,0c0-13.617,0-26.414,0-39.677
	c-3.463-0.239-6.717-0.457-10.022-0.714c0-4.648,0-8.665,0-13.185c8.956,0,17.55-0.232,26.126,0.11
	c3.582,0.142,5.235-1.22,6.424-5.786c6.874-26.843,14.158-53.507,21.065-80.35c1.224-4.846,1.706-10.149,1.878-15.286
	c0.307-7.921,0.089-15.885,0.089-24.168c3.562,0,6.249,0,9.058,0c0.67-2.492,1.327-4.715,1.911-6.953
	c12.333-49.018,24.667-98.047,36.993-147.054c2.24-8.888,4.204-17.939,6.997-26.525c1.515-4.692,2.599-7.871-1.343-11.454
	c-4.001-3.686-4.117-11.023-0.074-14.476c2.932-2.48,2.965-5.296,3.036-8.793c0.083-11.083,2.478-33.214,3.496-33.214
	c-0.052,11.969-0.242,23.923-0.106,35.894c0,1.73,1.088,3.85,2.139,5.099c4.355,5.053,4.615,11.556-0.086,16.008
	c-3.135,2.988-2.412,6.124-1.467,9.61c0.64,2.206,1.742,4.186,2.293,6.408c13.623,54.143,27.283,108.312,40.767,162.522
	c1.981,8.085,3.085,16.57,12.851,12.521c0,9.456-0.137,17.907,0.055,26.334c0.102,3.858,0.375,7.872,1.307,11.499
	c7.029,27.651,14.35,55.225,21.426,82.862c0.967,3.865,2.272,5.486,5.649,5.349c8.889-0.347,17.81-0.123,26.921-0.123
	c0,4.799,0,8.973,0,13.428c-3.549,0.213-6.701,0.403-10.077,0.628c0,13.286,0,26.241,0,39.991c4.375,0,8.492,0,13.073,0
	c0,6.573,0,12.352,0,18.381c4.648,0.272,8.837,0.533,13.006,0.791c0,5.245,0,10.462,0,15.688c-2.789,0-5.616,0-7.771,0
	c-2.875,5.34,2.429,13.651-5.097,15.381c0,34.01,0,67.998,0,102.299c4.495,0,8.698,0,12.867,0c0,5.678,0,11.345,0,17.009
	c-2.756-0.196-5.53-0.41-7.838-0.566c-2.756,5.486,2.461,13.851-5.254,15.519c0,9.583,0,18.929,0,28.278
	C246.415,761.568,246.379,880.11,246.345,998.636z M147.897,569.362c0-17.171,0.341-33.879-0.14-50.562
	c-0.327-10.649-7.767-18.599-16.038-18.919c-8.296-0.312-16.307,7.173-16.736,17.774c-0.74,17.069-0.19,34.223-0.19,51.705
	C125.814,569.362,136.375,569.362,147.897,569.362z M76.076,569.525c0-16.185-0.021-31.812,0.013-47.425
	c0.07-12.556-7.146-22.233-16.669-22.233c-9.438,0-16.81,9.761-16.761,22.233c0.068,13.484,0.123,26.988,0.19,40.476
	c0.019,2.282,0.191,4.547,0.277,6.949C54.182,569.525,64.638,569.525,76.076,569.525z M219.426,569.499c0-2.919,0-5.28,0-7.61
	c0.083-12.825-0.067-25.647,0.308-38.461c0.382-12.813-6.491-23.124-16.17-23.525c-9.746-0.388-17.157,9.127-17.157,22.167
	c0.036,13.681,0.089,27.381,0.142,41.086c0,2.063,0.153,4.141,0.225,6.345C197.69,569.499,208.11,569.499,219.426,569.499z
	 M166.88,454.214c0-11.782,0.393-23.255-0.156-34.654c-0.363-7.61-5.41-12.625-11.007-12.652c-5.789,0-10.452,5.271-11.196,13.235
	c-0.358,4.507-0.102,9.08-0.102,13.651c-0.02,6.813-0.02,13.667-0.02,20.419C152.354,454.214,159.386,454.214,166.88,454.214z
	 M68.927,454.283c0-11.944,0.276-23.623-0.12-35.248c-0.224-6.643-5.097-11.617-10.336-11.965
	c-5.337-0.35-11.055,4.361-11.384,11.154c-0.603,11.986-0.188,24.061-0.188,36.059C54.474,454.283,61.47,454.283,68.927,454.283z
	 M215.896,454.283c0-5.365,0-9.912,0-14.484c0-6.09,0.174-12.215-0.088-18.3c-0.359-8.167-4.492-13.688-10.386-14.321
	c-5.39-0.585-11.229,4.045-11.538,10.748c-0.568,12.038-0.141,24.147-0.141,36.357C201.271,454.283,208.282,454.283,215.896,454.283
	z M117.857,454.317c0-11.729,0.258-22.78-0.068-33.8c-0.224-7.734-4.581-12.908-10.333-13.386
	c-5.613-0.505-11.11,4.091-11.521,11.591c-0.654,11.767-0.19,23.635-0.19,35.595C103.183,454.317,110.213,454.317,117.857,454.317z
	 M69.943,726.251c0-9.31,0.136-17.524-0.018-25.732c-0.139-7.411-3.789-12.1-9.062-12.072c-4.996,0.043-8.698,4.614-8.867,11.637
	c-0.243,7.371-0.157,14.742,0.12,22.095c0.07,1.406,1.705,3.798,2.703,3.878C59.645,726.476,64.499,726.251,69.943,726.251z
	 M210.076,725.864c0-9.68,0.342-18.962-0.123-28.195c-0.31-5.89-4.375-9.531-8.89-9.181c-4.633,0.354-7.955,3.538-8.268,9.431
	c-0.498,9.207-0.136,18.506-0.136,27.945C198.738,725.864,204.251,725.864,210.076,725.864z M140.01,725.883
	c0-9.405,0.19-18.087-0.055-26.739c-0.169-6.288-3.838-10.516-8.472-10.706c-4.737-0.188-8.77,3.771-8.993,9.904
	c-0.359,9.05-0.102,18.103-0.102,27.541C128.467,725.883,133.944,725.883,140.01,725.883z"/>
</svg>
