<?xml version="1.0" encoding="utf-8"?>
<!-- Generator: Adobe Illustrator 16.0.0, SVG Export Plug-In . SVG Version: 6.00 Build 0)  -->
<!DOCTYPE svg PUBLIC "-//W3C//DTD SVG 1.1//EN" "http://www.w3.org/Graphics/SVG/1.1/DTD/svg11.dtd">
<svg version="1.1" id="Layer_1" xmlns="http://www.w3.org/2000/svg" xmlns:xlink="http://www.w3.org/1999/xlink" x="0px" y="0px"
	 width="296.303px" height="1000px" viewBox="0 0 296.303 1000" enable-background="new 0 0 296.303 1000" xml:space="preserve">
<g>
	<path fill="#FFFFFF" d="M103.143,656.33c0-2.912-5.581-3.007-11.868-3.007H45.633c-6.322,0-12.366,0.095-12.366,3.007v34.034
		l69.876-26.731V656.33z"/>
	<path fill="#FFFFFF" d="M296.303,714.555c0,2.573-4.356,4.383-9.78,4.383h-11.834v73.939l-16.567-0.05v195.167
		c-44.095-0.016-90.735-0.026-137.718-0.034c-28.557-0.008-55.651-0.015-82.745-0.026V792.17l-17.266-0.049v-73.926l-10.618,0.741
		c-5.425,0-9.774-1.81-9.774-4.383l138.384-53.944c4.303-1.918,4.371-3.806,9.766-3.806c5.406,0,5.147,1.453,9.781,3.849
		L296.303,714.555z M164.028,782.682c0-12.528,0.619-24.983-0.243-37.305c-0.513-7.831-7.595-12.659-14.888-12.154
		c-7.423,0.52-13.081,5.929-13.376,14.028c-0.411,11.575-0.092,23.151-0.092,35.431C145.34,782.682,154.399,782.682,164.028,782.682
		z M199.835,974.533c0.068-2.514,0.259-4.862,0.292-7.25c0.087-14.098,0.122-28.177,0.17-42.231
		c0.088-13.046-7.86-23.228-18.071-23.228c-10.269,0-18.043,10.102-17.975,23.228c0.034,16.286,0.016,32.595,0.016,49.481
		C176.601,974.533,187.883,974.533,199.835,974.533z M97.787,782.682c0-12.528,0.62-24.983-0.243-37.305
		c-0.516-7.831-7.603-12.659-14.898-12.154c-7.421,0.52-13.073,5.929-13.362,14.028c-0.415,11.575-0.095,23.151-0.095,35.431
		C79.099,782.682,88.165,782.682,97.787,782.682z M97.787,862.67c0-12.53,0.62-24.97-0.243-37.301
		c-0.516-7.828-7.603-12.667-14.898-12.15c-7.421,0.51-13.073,5.927-13.362,14.027c-0.415,11.567-0.095,23.147-0.095,35.424
		C79.099,862.67,88.165,862.67,97.787,862.67z"/>
</g>
</svg>
