<?xml version="1.0" encoding="utf-8"?>
<!-- Generator: Adobe Illustrator 16.0.0, SVG Export Plug-In . SVG Version: 6.00 Build 0)  -->
<!DOCTYPE svg PUBLIC "-//W3C//DTD SVG 1.1//EN" "http://www.w3.org/Graphics/SVG/1.1/DTD/svg11.dtd">
<svg version="1.1" id="Layer_1" xmlns="http://www.w3.org/2000/svg" xmlns:xlink="http://www.w3.org/1999/xlink" x="0px" y="0px"
	 width="356.508px" height="1000px" viewBox="0 0 356.508 1000" enable-background="new 0 0 356.508 1000" xml:space="preserve">
<path fill="#FFFFFF" d="M156.026,613.699c3.771-1.711,10.128-2.238,14.123-1.159l14.087,3.152c3.688,1.885,9.854,4.675,13.714,6.189
	l155.339,61.051c3.857,1.514,4.306,6.396,1.032,7.011c-3.291,0.607-9.249,1.116-13.244,1.116c-3.979,0-7.253,3.385-7.253,7.527
	l0.033,281.88c0,4.145-3.391,7.526-7.527,7.526H31.793c-4.152,0-7.536-3.383-7.536-7.526l-0.026-281.88
	c0-4.144-3.254-7.527-7.234-7.527c-3.977,0-15.001-1.204-16.484-2.688c-1.49-1.479,0.381-4.091,4.152-5.806L156.026,613.699z
	 M257.162,931.166c0-17.902-0.016-35.169,0.02-52.427c0.049-13.903-6.684-24.599-15.591-24.599
	c-8.868,0-15.758,10.781-15.688,24.599c0.055,14.903,0.089,29.82,0.156,44.729c0.033,2.531,0.188,5.036,0.258,7.698
	C236.684,931.166,246.45,931.166,257.162,931.166z M295.33,789.113c0,12.772-0.118-2.438,0.033-46.15
	c0.054-12.253-5.819-21.664-13.536-21.664c-7.685,0-13.66,9.495-13.625,21.664c0.054,13.126,0.103,26.233,0.155,39.41
	c0.033,2.22,0.155,4.417,0.225,6.74C277.572,789.113,286.046,789.113,295.33,789.113z M244.898,789.113
	c0,12.772-0.138-2.438,0.033-46.15c0.033-12.253-5.838-21.664-13.537-21.664c-7.664,0-13.658,9.495-13.621,21.664
	c0.05,13.126,0.084,26.233,0.151,39.41c0.021,2.22,0.138,4.417,0.191,6.74C227.127,789.113,235.6,789.113,244.898,789.113z
	 M144.245,789.113c0,12.772-0.121-2.438,0.016-46.15c0.072-12.253-5.819-21.664-13.518-21.664c-7.684,0-13.659,9.495-13.626,21.664
	c0.054,13.126,0.088,26.233,0.156,39.41c0,2.22,0.138,4.417,0.205,6.74C126.47,789.113,134.943,789.113,144.245,789.113z
	 M94.058,789.113c0,12.772-0.122-2.438,0.05-46.15c0.033-12.253-5.839-21.664-13.556-21.664c-7.665,0-13.657,9.495-13.622,21.664
	c0.05,13.126,0.103,26.233,0.152,39.41c0.019,2.22,0.156,4.417,0.209,6.74C76.282,789.113,84.755,789.113,94.058,789.113z
	 M194.676,931.166c0-17.902-0.018-35.169,0.016-52.427c0.069-13.903-6.683-24.599-15.601-24.599
	c-8.854,0-15.747,10.781-15.675,24.599c0.05,14.903,0.085,29.82,0.152,44.729c0.034,2.531,0.19,5.036,0.259,7.698
	C174.197,931.166,183.964,931.166,194.676,931.166z M136.134,931.166c0-17.902-0.016-35.169,0.015-52.427
	c0.053-13.903-6.68-24.599-15.602-24.599c-8.854,0-15.761,10.781-15.693,24.599c0.069,14.903,0.103,29.82,0.175,44.729
	c0.035,2.531,0.187,5.036,0.259,7.698C115.635,931.166,125.42,931.166,136.134,931.166z"/>
</svg>
