<?xml version="1.0" encoding="utf-8"?>
<!-- Generator: Adobe Illustrator 16.0.0, SVG Export Plug-In . SVG Version: 6.00 Build 0)  -->
<!DOCTYPE svg PUBLIC "-//W3C//DTD SVG 1.1//EN" "http://www.w3.org/Graphics/SVG/1.1/DTD/svg11.dtd">
<svg version="1.1" id="Layer_1" xmlns="http://www.w3.org/2000/svg" xmlns:xlink="http://www.w3.org/1999/xlink" x="0px" y="0px"
	 width="451.508px" height="1000px" viewBox="0 0 451.508 1000" enable-background="new 0 0 451.508 1000" xml:space="preserve">
<path fill="#FFFFFF" d="M451.508,987.994H0.279V744.629c-0.429-10.611-0.402-21.582,0.361-32.333
	c0.175-2.341-0.308-4.744-0.293-7.079c0.068-11.59,0.829-23.25,0.115-34.79c-0.604-9.638,0.402-13.831,8.344-18.506
	c3.429-2.058,7.181-3.514,10.576-5.597c3.452-2.138,5.838-4.56,5.596-9.941c-0.224-4.391-0.973-9.507,1.817-13.667
	c2.022,1.062,1.403,3.059,1.429,4.798c0.115,4.272-0.212,8.555,1.008,12.774c1.155,3.935,10.712,9.271,13.074,6.61
	c4.262-4.719,9.915-6.208,15.027-8.965c1.695-0.904,2.764-1.791,2.566-3.961c-0.551-6.053,0.791-12.16-0.871-18.274
	c-1.029-3.771,0.761-7.002,4.463-8.385c4.152-1.587,8.406-2.913,12.504-4.636c3.205-1.359,6.371-3.015,8.371-6.288
	c9.557-15.536,19.661-30.538,33.586-42.04c8.216-6.785,16.758-12.902,26.462-17.198c14.252-6.295,29.094-10.638,43.627-15.966
	c3.258-1.191,5.082-3.125,5.436-6.03c0.695-5.52,3.392-9.394,6.942-13.123c3.178-3.326,5.991-7.173,7.432-11.772
	c1.266-3.996-3.075-7.906-2.128-10.55c1.414-3.979,2.859-7.288,1.551-11.564c-0.756-2.489-1.966-5.614-1.213-7.69
	c3.398-9.344,0.608-18.979,1.851-28.345c0.24-1.894-0.501-4.865,1.867-4.793c2.163,0.068,2.836,3.269,2.095,5.072
	c-1.551,3.812-0.122,7.294,0.068,10.936c0.206,4.426,0.62,9.585,1.776,12.979c1.356,4.022,1.003,6.829,0.384,10.367
	c-0.301,1.75-0.354,3.748,0.14,5.417c1.3,4.323,3.452,8.425-0.061,12.843c-0.631,0.757-0.346,3.092,0.308,4.134
	c2.034,3.177,3.326,6.846,5.873,9.737c4.212,4.736,8.045,9.827,9.379,16.449c0.674,3.273,2.395,4.935,5.582,5.736
	c13.745,3.418,26.963,8.73,39.846,14.682c12.797,5.936,24.045,14.579,34.543,24.521c10.97,10.356,21.254,18.735,27.065,35.799
	c1.776,3.47,6.409,1.41,9.474,2.212c6.941,1.748,11.394,14.994,16.723,21.794c-0.117-8.378,0.896-22.542-2.824-29.361
	c-2.357-4.369-3.848-9.271-5.622-13.965c-3.349-8.767-2.091-12.389,5.97-15.272c3.17-1.131,2.572-3.302,2.584-5.479
	c0.035-24.372-0.572-48.751,0.246-73.088c0.457-13.631,2.879-27.223,4.014-40.897c1.215-14.569,2.705-29.128,4.18-43.661
	c0.464-4.729,0.962-9.619,1.254-14.304c0.494-7.86,3.566-15.57,2.415-23.33c-1.776-12.031-0.381-23.829,0.414-35.841
	c2.41,1.015,3.304,2.908,2.752,5.243c-1.565,6.75-0.342,13.453-0.015,20.193c0.38,7.634-1.319,15.175-0.068,22.935
	c1.607,9.982,1.878,20.22,3.426,30.218c1.721,11.066,2.436,22.234,3.809,33.347c0.974,7.95,1.152,16.022,2.17,23.983
	c1.875,14.51,4.133,28.942,4.02,43.661c-0.096,11.283,0.303,22.588-0.138,33.834c-0.285,7.348-2.765,18.619,2.817,22.695
	c11.074,8.119,6.787,11.106,3.994,20.295c-1.652,5.417-3.4,11.014-4.797,16.569c-1.748,6.898,0.285,13.486,0.114,20.194
	c-0.114,4.125,0.429,13.367,4.254,2.548c4.589-2.886,8.386-6.275,8.146-12.953c-0.121-3.26-1.395-6.997,1.601-10.468
	c0.958,4.466,3.239,7.888,1.533,12.59c-1.479,4.037,2.774,10.591,6.668,11.606c11.78,3.033,19.202,10.854,22.89,23.104
	c0.551,1.859,0.604,4.368,2.652,5.546c5.045,2.896,3.375,7.883,2.988,12.23c-0.129,1.479-0.666,3.091-0.674,4.685
	c-0.016,13.65,0.043,27.282-0.041,40.941c-0.02,2.859,0.945,5.018,2.383,7.345c1.576,2.601,4.539,4.296,4.797,7.812
	c0.863,11.675,0.535,23.475,0.518,35.092c-0.02,9.63-0.293,19.473-0.189,29.109c0.121,9.298,0.137,18.806,0.121,28.039
	L451.508,987.994z M225.892,807.691c0-16.586,0.688-33.035-0.285-49.341c-0.593-10.374-8.698-16.738-17.042-16.075
	c-8.474,0.705-14.933,7.838-15.278,18.564c-0.483,15.272-0.122,30.614-0.122,46.852
	C204.517,807.691,214.887,807.691,225.892,807.691z M311.51,807.691c0-24.235,1.259-23.866-0.277-49.392
	c-0.593-10.393-8.697-16.756-17.016-16.08c-8.493,0.682-14.967,7.832-15.305,18.57c-0.473,15.294-0.111,30.649-0.111,46.9
	C290.133,807.691,300.504,807.691,311.51,807.691z M226.151,973.646c0.083-2.878,0.293-5.607,0.334-8.325
	c0.096-16.19,0.139-32.341,0.219-48.484c0.09-14.971-9.044-26.638-20.758-26.638c-11.782,0-20.71,11.584-20.635,26.638
	c0.054,18.704,0.02,37.419,0.02,56.81C199.487,973.646,212.438,973.646,226.151,973.646z M276.236,672.384
	c0-16.788,0.858-16.528-0.204-34.218c-0.408-7.188-6.016-11.606-11.793-11.143c-5.881,0.477-10.359,5.408-10.591,12.875
	c-0.334,10.6-0.075,21.219-0.075,32.484C261.424,672.384,268.594,672.384,276.236,672.384z M220.794,672.392
	c0-16.796,0.859-16.536-0.189-34.215c-0.414-7.198-6.029-11.617-11.799-11.152c-5.874,0.489-10.367,5.417-10.591,12.876
	c-0.327,10.599-0.087,21.234-0.087,32.491C205.979,672.392,213.161,672.392,220.794,672.392z M162.197,672.392
	c0-16.796,0.864-16.536-0.19-34.215c-0.41-7.198-6.025-11.617-11.795-11.152c-5.881,0.489-10.371,5.417-10.595,12.876
	c-0.327,10.599-0.084,21.218-0.084,32.491C147.387,672.392,154.568,672.392,162.197,672.392z M141.65,807.673
	c0-16.594,0.708-33.044-0.273-49.344c-0.604-10.387-8.709-16.75-17.054-16.069c-8.473,0.688-14.932,7.835-15.278,18.547
	c-0.479,15.271-0.118,30.626-0.118,46.866C120.274,807.673,130.645,807.673,141.65,807.673z"/>
</svg>
