<?xml version="1.0" encoding="utf-8"?>
<!-- Generator: Adobe Illustrator 16.0.0, SVG Export Plug-In . SVG Version: 6.00 Build 0)  -->
<!DOCTYPE svg PUBLIC "-//W3C//DTD SVG 1.1//EN" "http://www.w3.org/Graphics/SVG/1.1/DTD/svg11.dtd">
<svg version="1.1" id="Layer_1" xmlns="http://www.w3.org/2000/svg" xmlns:xlink="http://www.w3.org/1999/xlink" x="0px" y="0px"
	 width="204.975px" height="1000px" viewBox="0 0 204.975 1000" enable-background="new 0 0 204.975 1000" xml:space="preserve">
<g>
	<g>
		<path fill="#FFFFFF" d="M2.303,819.092c6.01,18.586,24.131,13.883,24.131,13.883s12.489,21.917,26.954,17.663
			c14.398-4.238,26.045-18.938,26.045-18.938s15.98,9.792,31.688,10.093c15.278,0.32,30.299-8.85,30.299-8.85
			s13.07,9.03,25.061,8.222c14.729-0.973,17.998-25.861,17.998-25.861s17.019-0.669,19.876-16.423
			c3.288-18.159-7.562-38.494-7.562-38.494s8.456-30.879,0.464-45.451c-7.371-13.452-25.558-12.65-25.558-12.65
			s-1.843-28.059-21.756-32.812c-26.625-6.32-38.821,8.225-38.821,8.225s-21.288-5.323-41.163-0.646
			c-15.879,3.765-28.367,26.526-28.367,26.526s-21.579,0.438-32.209,17.022c-9.679,15.22-4.235,49.9-4.235,49.9
			S-4.205,798.906,2.303,819.092z M87.682,903.057c2.79,40.184-0.571,57.734-0.571,57.734s-1.049,4.934-2.375,8.854
			c-1.703,5.091-13.245,9.48-13.245,9.48s2.376,1.315,6.15,1.248c3.118-0.058,7.475-1.575,10.421-1.248
			c5.2,0.525,17.825,3.565,22.318,3.565c9.509,0,11.815-2.506,11.815-2.506s-7.51-3.722-8.972-8.839
			c-2.001-6.93-4.601-20.961-5.601-36.202c-2.941-34.844-8.522-38.994,21.496-74.422c7.217-10.119,14.846-29.332,14.846-29.332
			l-11.796,0.757c0,0,0.498,16.104-2.566,19.729c-3.325,3.927-7.579,6.294-7.579,6.294l2.189-21.254c0,0-5.187-2.212-10.11-1.349
			c-5.65,1.016-12.798,1.212-12.798,1.212s2.05,21.29,0.824,27.721c-1.36,7.372-5.185,18.938-5.185,18.938
			s-3.686-14.664-5.216-23.981c-0.968-6.056,6.317-23.574,6.317-23.574s-8.455-5.029-11.229-6.295
			c-0.36-0.163-0.757,17.891-1.22,20.844c-0.382,2.369-0.64,4.469-0.64,4.469s-1.566-3.274-2.36-6.393
			c-0.775-3.158-2.757-22.363-2.757-22.363s-6.42,8.078-9.522,10.48c-3.721,2.903-13.796,7.477-13.796,7.477
			S84.32,869.375,87.682,903.057z"/>
	</g>
</g>
</svg>
